# xmcd
#
# Track frame offsets: 
#        150
#        21315
#        45004
#        61667
#        85929
#        101298
#        119102
#        137889
#        159103
#        174009
#        191598
#        206651
#
# Disc length: 2968 seconds
#
# Revision: 0
# Processed by: cddbd v1.5.2PL0 Copyright (c) Steve Scherf et al.
# Submitted via: ExactAudioCopyFreeDBPlugin 1.0
#
DISCID=900b960c
DTITLE=Cyrus, Billy Ray - Change My Mind
DYEAR=2012
DGENRE=Contemporary Country
TTITLE0=Change My Mind
TTITLE1=Once Again
TTITLE2=Hillbilly Heart
TTITLE3=Tomorrow Became Yesterday
TTITLE4=Good As Gone
TTITLE5=Forgot To Forget
TTITLE6=That's What Daddy's Do
TTITLE7=Hope Is Just Ahead
TTITLE8=I'm So Miserable
TTITLE9=Stomp
TTITLE10=We'll Get By Somehow (Always Wanna Do)
TTITLE11=Home
EXTD=
EXTT0=
EXTT1=
EXTT2=
EXTT3=
EXTT4=
EXTT5=
EXTT6=
EXTT7=
EXTT8=
EXTT9=
EXTT10=
EXTT11=
PLAYORDER=
